<?xml version="1.0" encoding="UTF-8" standalone="no"?>
<!-- Created with Inkscape (http://www.inkscape.org/) -->

<svg
   width="29.281841mm"
   height="3.8081665mm"
   viewBox="0 0 29.281841 3.8081665"
   version="1.1"
   id="svg5"
   inkscape:version="1.2 (dc2aedaf03, 2022-05-15)"
   sodipodi:docname="logo ade.svg"
   xml:space="preserve"
   xmlns:inkscape="http://www.inkscape.org/namespaces/inkscape"
   xmlns:sodipodi="http://sodipodi.sourceforge.net/DTD/sodipodi-0.dtd"
   xmlns="http://www.w3.org/2000/svg"
   xmlns:svg="http://www.w3.org/2000/svg"><sodipodi:namedview
     id="namedview7"
     pagecolor="#ffffff"
     bordercolor="#000000"
     borderopacity="0.25"
     inkscape:showpageshadow="2"
     inkscape:pageopacity="0.0"
     inkscape:pagecheckerboard="0"
     inkscape:deskcolor="#d1d1d1"
     inkscape:document-units="mm"
     showgrid="false"
     inkscape:zoom="11.034621"
     inkscape:cx="238.79389"
     inkscape:cy="458.23959"
     inkscape:window-width="1366"
     inkscape:window-height="732"
     inkscape:window-x="0"
     inkscape:window-y="0"
     inkscape:window-maximized="1"
     inkscape:current-layer="layer1" /><defs
     id="defs2" /><g
     inkscape:label="Layer 1"
     inkscape:groupmode="layer"
     id="layer1"
     transform="translate(-42.935247,-124.25319)"><g
       id="g2387"
       style="fill:#eda031;fill-opacity:1"
       inkscape:export-filename="Code/Hugo/ade/static/logo.jpg"
       inkscape:export-xdpi="300"
       inkscape:export-ydpi="300"><text
         xml:space="preserve"
         style="font-size:3.175px;white-space:pre;inline-size:20.4015;display:inline;fill:#eda031;fill-opacity:1;stroke-width:0.264999"
         x="54.761063"
         y="123.67683"
         id="text186"
         transform="matrix(0.59318039,0,0,0.59318039,10.939651,53.401203)"><tspan
           x="54.761063"
           y="123.67683"
           id="tspan8975"><tspan
             style="font-weight:800;font-family:'JetBrains Mono';-inkscape-font-specification:'JetBrains Mono Ultra-Bold';stroke-width:0.265"
             id="tspan8973">ABAIXO DO</tspan></tspan></text><g
         aria-label="EQUADOR"
         id="text356"
         style="font-weight:800;font-size:4.131px;font-family:'JetBrains Mono';-inkscape-font-specification:'JetBrains Mono Ultra-Bold';fill:#eda031;fill-opacity:1;stroke-width:0.344791"><path
           d="m 54.840436,127.31777 v -3.01563 h 1.85895 v 0.53703 h -1.251693 v 0.67749 h 1.107108 v 0.51224 h -1.107108 v 0.75184 h 1.251693 v 0.53703 z"
           style="fill:#eda031;fill-opacity:1;stroke-width:0.344792"
           id="path2337" /><path
           d="m 58.64095,128.06135 -0.425493,-0.70227 q -0.297432,-0.004 -0.516375,-0.11567 -0.218943,-0.11566 -0.342873,-0.31808 -0.119799,-0.20655 -0.119799,-0.47507 v -1.28061 q 0,-0.27678 0.12393,-0.47919 0.12393,-0.20242 0.347004,-0.31396 0.223074,-0.11567 0.520506,-0.11567 0.297432,0 0.520506,0.11567 0.223074,0.11154 0.347004,0.31809 0.12393,0.20242 0.12393,0.47506 v 1.28061 q 0,0.26852 -0.115668,0.47507 -0.111537,0.20242 -0.326349,0.30982 l 0.508113,0.8262 z m -0.4131,-1.24343 q 0.194157,0 0.280908,-0.095 0.09088,-0.095 0.09088,-0.27265 v -1.28061 q 0,-0.18176 -0.09501,-0.27678 -0.09501,-0.095 -0.276777,-0.095 -0.177633,0 -0.276777,0.095 -0.09501,0.095 -0.09501,0.27678 v 1.28061 q 0,0.17763 0.09088,0.27265 0.09088,0.095 0.280908,0.095 z"
           style="fill:#eda031;fill-opacity:1;stroke-width:0.344792"
           id="path2339" /><path
           d="m 60.706444,127.35908 q -0.458541,0 -0.727056,-0.24786 -0.264384,-0.24786 -0.264384,-0.67748 v -2.1316 h 0.61965 v 2.12747 q 0,0.19002 0.09501,0.2933 0.09914,0.0991 0.276777,0.0991 0.173502,0 0.272646,-0.0991 0.09914,-0.10328 0.09914,-0.2933 v -2.12747 h 0.61965 v 2.1316 q 0,0.42549 -0.268515,0.67748 -0.264384,0.24786 -0.722925,0.24786 z"
           style="fill:#eda031;fill-opacity:1;stroke-width:0.344792"
           id="path2341" /><path
           d="m 62.049013,127.31777 0.739449,-3.01563 h 0.78489 l 0.747711,3.01563 H 63.68902 l -0.144585,-0.68161 h -0.718794 l -0.144585,0.68161 z m 0.776628,-0.68161 h 0.718794 l -0.251991,-1.22278 c -0.01928,-0.10465 -0.03994,-0.20793 -0.06197,-0.30982 -0.01928,-0.10465 -0.03443,-0.1859 -0.04544,-0.24373 -0.01101,0.0578 -0.02616,0.13766 -0.04544,0.23959 -0.01653,0.1019 -0.0358,0.20518 -0.05783,0.30983 z"
           style="fill:#eda031;fill-opacity:1;stroke-width:0.344792"
           id="path2343"
           sodipodi:nodetypes="ccccccccccccccccc" /><path
           d="m 64.684585,127.31777 v -3.01563 h 0.979047 q 0.313956,0 0.545292,0.1198 0.235467,0.1198 0.363528,0.33874 0.132192,0.21481 0.132192,0.50812 v 1.07819 q 0,0.28917 -0.132192,0.50811 -0.128061,0.21894 -0.363528,0.34287 -0.231336,0.1198 -0.545292,0.1198 z m 0.61965,-0.55768 h 0.359397 q 0.185895,0 0.301563,-0.11567 0.119799,-0.11567 0.119799,-0.29743 v -1.07819 q 0,-0.18177 -0.119799,-0.29331 -0.115668,-0.11566 -0.301563,-0.11566 h -0.359397 z"
           style="fill:#eda031;fill-opacity:1;stroke-width:0.344792"
           id="path2345" /><path
           d="m 68.142226,127.35908 q -0.301563,0 -0.524638,-0.11154 -0.223074,-0.11566 -0.347004,-0.31808 -0.119799,-0.20655 -0.119799,-0.4792 v -1.28061 q 0,-0.27264 0.119799,-0.47506 0.12393,-0.20655 0.347004,-0.31809 0.223075,-0.11567 0.524638,-0.11567 0.305694,0 0.524637,0.11567 0.223074,0.11154 0.342873,0.31809 0.12393,0.20242 0.12393,0.47506 v 1.28061 q 0,0.27265 -0.12393,0.4792 -0.119799,0.20242 -0.342873,0.31808 -0.218943,0.11154 -0.524637,0.11154 z m 0,-0.53703 q 0.37179,0 0.37179,-0.37179 v -1.28061 q 0,-0.37179 -0.37179,-0.37179 -0.37179,0 -0.37179,0.37179 v 1.28061 q 0,0.37179 0.37179,0.37179 z"
           style="fill:#eda031;fill-opacity:1;stroke-width:0.344792"
           id="path2347" /><path
           d="m 69.650034,127.31777 v -3.01563 h 0.970785 q 0.322218,0 0.557685,0.11154 0.235467,0.11154 0.363528,0.31809 0.132192,0.20655 0.132192,0.48745 0,0.2933 -0.144585,0.52464 -0.140454,0.23134 -0.384183,0.33461 l 0.570078,1.2393 h -0.673353 l -0.487458,-1.14015 h -0.28917 v 1.14015 z m 0.615519,-1.67718 h 0.355266 q 0.20655,0 0.318087,-0.10328 0.115668,-0.10327 0.115668,-0.28917 0,-0.19416 -0.115668,-0.30156 -0.111537,-0.10741 -0.318087,-0.10741 h -0.355266 z"
           style="fill:#eda031;fill-opacity:1;stroke-width:0.344792"
           id="path2349" /></g><rect
         style="fill:#eda031;fill-opacity:1;stroke-width:0.240201"
         id="rect620"
         width="29.281845"
         height="0.58193928"
         x="42.935246"
         y="124.25319" /></g></g></svg>
